<mxfile host="app.diagrams.net" modified="2024-06-02T13:51:00.850Z" agent="Mozilla/5.0 (Windows NT 10.0; Win64; x64) AppleWebKit/537.36 (KHTML, like Gecko) Chrome/125.0.0.0 Safari/537.36" etag="qV9f_jRBvmNJnO3ppfwL" version="24.4.13" type="github">
  <diagram name="Flood - Code" id="K1mQLcFdxhSTIjQSMRG7">
    <mxGraphModel dx="1105" dy="586" grid="1" gridSize="10" guides="1" tooltips="1" connect="1" arrows="1" fold="1" page="1" pageScale="1" pageWidth="850" pageHeight="1100" math="0" shadow="0">
      <root>
        <mxCell id="0" />
        <mxCell id="1" parent="0" />
        <mxCell id="XfLjHumAXiJ_MpR5SmH1-4" value="" style="edgeStyle=orthogonalEdgeStyle;rounded=0;orthogonalLoop=1;jettySize=auto;html=1;" edge="1" parent="1" source="XfLjHumAXiJ_MpR5SmH1-1" target="XfLjHumAXiJ_MpR5SmH1-3">
          <mxGeometry relative="1" as="geometry" />
        </mxCell>
        <mxCell id="XfLjHumAXiJ_MpR5SmH1-1" value="When Flag Clicked" style="rounded=0;whiteSpace=wrap;html=1;fontSize=23;" vertex="1" parent="1">
          <mxGeometry x="340" y="10" width="170" height="80" as="geometry" />
        </mxCell>
        <mxCell id="XfLjHumAXiJ_MpR5SmH1-8" value="" style="edgeStyle=orthogonalEdgeStyle;rounded=0;orthogonalLoop=1;jettySize=auto;html=1;" edge="1" parent="1" source="XfLjHumAXiJ_MpR5SmH1-3" target="XfLjHumAXiJ_MpR5SmH1-5">
          <mxGeometry relative="1" as="geometry" />
        </mxCell>
        <mxCell id="XfLjHumAXiJ_MpR5SmH1-3" value="Go to start coordinates" style="rounded=1;whiteSpace=wrap;html=1;" vertex="1" parent="1">
          <mxGeometry x="365" y="140" width="120" height="60" as="geometry" />
        </mxCell>
        <mxCell id="XfLjHumAXiJ_MpR5SmH1-5" value="Move 15 steps up every 3 seconds" style="rounded=1;whiteSpace=wrap;html=1;" vertex="1" parent="1">
          <mxGeometry x="365" y="270" width="120" height="60" as="geometry" />
        </mxCell>
        <mxCell id="XfLjHumAXiJ_MpR5SmH1-7" value="Incorrectly" style="rounded=1;whiteSpace=wrap;html=1;" vertex="1" parent="1">
          <mxGeometry x="561" y="480" width="120" height="60" as="geometry" />
        </mxCell>
        <mxCell id="XfLjHumAXiJ_MpR5SmH1-11" style="edgeStyle=orthogonalEdgeStyle;rounded=0;orthogonalLoop=1;jettySize=auto;html=1;exitX=0;exitY=0.5;exitDx=0;exitDy=0;entryX=0.5;entryY=0;entryDx=0;entryDy=0;" edge="1" parent="1" source="XfLjHumAXiJ_MpR5SmH1-9" target="XfLjHumAXiJ_MpR5SmH1-10">
          <mxGeometry relative="1" as="geometry" />
        </mxCell>
        <mxCell id="XfLjHumAXiJ_MpR5SmH1-12" style="edgeStyle=orthogonalEdgeStyle;rounded=0;orthogonalLoop=1;jettySize=auto;html=1;exitX=1;exitY=0.5;exitDx=0;exitDy=0;entryX=0.5;entryY=0;entryDx=0;entryDy=0;" edge="1" parent="1" source="XfLjHumAXiJ_MpR5SmH1-9" target="XfLjHumAXiJ_MpR5SmH1-7">
          <mxGeometry relative="1" as="geometry" />
        </mxCell>
        <mxCell id="XfLjHumAXiJ_MpR5SmH1-9" value="If Question is answered" style="rounded=0;whiteSpace=wrap;html=1;fontSize=23;" vertex="1" parent="1">
          <mxGeometry x="340" y="370" width="170" height="80" as="geometry" />
        </mxCell>
        <mxCell id="XfLjHumAXiJ_MpR5SmH1-10" value="Correctly" style="rounded=1;whiteSpace=wrap;html=1;" vertex="1" parent="1">
          <mxGeometry x="166" y="480" width="120" height="60" as="geometry" />
        </mxCell>
      </root>
    </mxGraphModel>
  </diagram>
</mxfile>
